<svg xmlns="http://www.w3.org/2000/svg" width="500" height="500">
  <rect width="334" height="365" x="83" y="80" fill="#000" rx="30" />
  <path fill="#878787" fill-rule="evenodd" d="M179 123c10.493 0 19-8.507 19-19V80h-38v24c0 10.493 8.507 19 19 19Z"
      clip-rule="evenodd" />
  <path fill="#3A3A3A" d="M198 69c0-10.493-8.507-19-19-19s-19 8.507-19 19v11h38V69Z" />
  <path stroke="#000" stroke-width="2"
      d="M197 104c0 9.941-8.059 18-18 18s-18-8.059-18-18V81h36v23Zm0-25h-36V69c0-9.941 8.059-18 18-18s18 8.059 18 18v10Z" />
  <rect width="30" height="60" x="162" y="52" fill="#fff" rx="15" />
  <path fill="#878787" fill-rule="evenodd" d="M321 123c10.493 0 19-8.507 19-19V80h-38v24c0 10.493 8.507 19 19 19Z"
      clip-rule="evenodd" />
  <path fill="#3A3A3A" d="M340 69c0-10.493-8.507-19-19-19s-19 8.507-19 19v11h38V69Z" />
  <path stroke="#000" stroke-width="2"
      d="M339 104c0 9.941-8.059 18-18 18s-18-8.059-18-18V81h36v23Zm0-25h-36V69c0-9.941 8.059-18 18-18s18 8.059 18 18v10Z" />
  <rect width="30" height="60" x="304" y="52" fill="#fff" rx="15" />
  <rect width="277" height="273" x="111" y="147" fill="#fff" rx="30" />
  <rect width="220" height="30" x="140" y="190" fill="#000" rx="5" />
  <rect width="220" height="30" x="140" y="244" fill="#000" rx="5" />
  <rect width="220" height="30" x="140" y="298" fill="#000" rx="5" />
  <rect width="220" height="30" x="140" y="352" fill="#000" rx="5" />
  <path fill="#3A3A3A" d="M192 77h4v4h-4z" />
</svg>