<svg xmlns="http://www.w3.org/2000/svg" width="400" height="400">
    <rect width="334" height="365" x="33" y="30" fill="#000" rx="30" />
    <path fill="#878787" fill-rule="evenodd" d="M129 73c10.493 0 19-8.507 19-19V30h-38v24c0 10.493 8.507 19 19 19Z"
        clip-rule="evenodd" />
    <path fill="#3A3A3A" d="M148 19c0-10.493-8.507-19-19-19s-19 8.507-19 19v11h38V19Z" />
    <path stroke="#000" stroke-width="2"
        d="M147 54c0 9.941-8.059 18-18 18s-18-8.059-18-18V31h36v23Zm0-25h-36V19c0-9.941 8.059-18 18-18s18 8.059 18 18v10Z" />
    <rect width="30" height="60" x="112" y="2" fill="#fff" rx="15" />
    <path fill="#878787" fill-rule="evenodd" d="M271 73c10.493 0 19-8.507 19-19V30h-38v24c0 10.493 8.507 19 19 19Z"
        clip-rule="evenodd" />
    <path fill="#3A3A3A" d="M290 19c0-10.493-8.507-19-19-19s-19 8.507-19 19v11h38V19Z" />
    <path stroke="#000" stroke-width="2"
        d="M289 54c0 9.941-8.059 18-18 18s-18-8.059-18-18V31h36v23Zm0-25h-36V19c0-9.941 8.059-18 18-18s18 8.059 18 18v10Z" />
    <rect width="30" height="60" x="254" y="2" fill="#fff" rx="15" />
    <rect width="277" height="273" x="61" y="97" fill="#fff" rx="30" />
    <rect width="220" height="30" x="90" y="140" fill="#000" rx="5" />
    <rect width="220" height="30" x="90" y="194" fill="#000" rx="5" />
    <rect width="220" height="30" x="90" y="248" fill="#000" rx="5" />
    <rect width="220" height="30" x="90" y="302" fill="#000" rx="5" />
    <path fill="#3A3A3A" d="M142 27h4v4h-4z" />
</svg>